# xmcd
#
# Track frame offsets:
#	150
#	14152
#	34652
#	57405
#	76665
#	94727
#	117862
#	133977
#	152000
#	167722
#	191782
#
# Disc length: 2672 seconds
#
# Revision: 0
# Processed by: cddbd v1.4PL0 Copyright (c) Steve Scherf et al.
# Submitted via: dBpowerAMP V4.0
#
DISCID=900a6e0b
DTITLE=Dave Keller Blues Band - Faith
DYEAR=1900
DGENRE=Blues
TTITLE0=I wanna know
TTITLE1=Make me holler
TTITLE2=West helena blues
TTITLE3=Rope of faith
TTITLE4=When you love me
TTITLE5=Long cold spring
TTITLE6=Blue Jean gal
TTITLE7=The first time
TTITLE8=Answering machine
TTITLE9=Too close for comfort
TTITLE10=Hickory
EXTD=
EXTT0=
EXTT1=
EXTT2=
EXTT3=
EXTT4=
EXTT5=
EXTT6=
EXTT7=
EXTT8=
EXTT9=
EXTT10=
PLAYORDER=
